<?xml version="1.0" encoding="iso-8859-1"?>
<!-- Uploaded to: SVG Repo, www.svgrepo.com, Generator: SVG Repo Mixer Tools -->
<svg fill="#000000" version="1.1" id="Capa_1" xmlns="http://www.w3.org/2000/svg" xmlns:xlink="http://www.w3.org/1999/xlink" 
	 viewBox="0 0 471.429 471.429" xml:space="preserve">
<g>
	<path d="M375.192,227.051c-12.921,0-24.394,6.316-31.493,16.024c-7.099-9.708-18.571-16.024-31.492-16.024
		s-24.394,6.316-31.493,16.024c-7.099-9.708-18.571-16.024-31.492-16.024c-9.041,0-17.372,3.092-23.993,8.275V128.993
		c0-21.5-17.492-38.993-38.992-38.993s-38.993,17.492-38.993,38.993v274.936c0,37.22,30.28,67.5,67.5,67.5h131.939
		c37.22,0,67.5-30.28,67.5-67.5V266.043C414.184,244.542,396.692,227.051,375.192,227.051z M399.184,403.929
		c0,28.949-23.551,52.5-52.5,52.5H214.745c-28.949,0-52.5-23.551-52.5-52.5V128.993c0-13.229,10.763-23.993,23.993-23.993
		s23.992,10.763,23.992,23.993v152.05c0,4.142,3.358,7.5,7.5,7.5s7.5-3.358,7.5-7.5v-15c0-13.229,10.763-23.992,23.993-23.992
		s23.992,10.763,23.992,23.992v15c0,4.142,3.358,7.5,7.5,7.5s7.5-3.358,7.5-7.5v-15c0-13.229,10.763-23.992,23.993-23.992
		s23.992,10.763,23.992,23.992v15c0,4.142,3.358,7.5,7.5,7.5s7.5-3.358,7.5-7.5v-15c0-13.229,10.763-23.992,23.993-23.992
		s23.992,10.763,23.992,23.992V403.929z"/>
	<path d="M255.229,128.993c0,14.897-4.677,29.083-13.525,41.024c-2.466,3.328-1.768,8.025,1.561,10.491
		c3.327,2.465,8.025,1.767,10.491-1.561c10.777-14.544,16.474-31.818,16.474-49.955c0-46.313-37.679-83.993-83.992-83.993
		s-83.993,37.679-83.993,83.993c0,18.137,5.697,35.411,16.474,49.956c1.472,1.986,3.736,3.035,6.032,3.035
		c1.552,0,3.117-0.48,4.459-1.475c3.328-2.466,4.027-7.163,1.561-10.491c-8.849-11.941-13.526-26.127-13.526-41.025
		c0-38.042,30.95-68.993,68.993-68.993S255.229,90.95,255.229,128.993z"/>
	<path d="M128.546,227.322c-34.728-20.423-56.302-58.101-56.302-98.329c0-25.641,8.316-49.858,24.048-70.033
		c2.547-3.266,1.964-7.979-1.302-10.526c-3.266-2.548-7.979-1.965-10.526,1.302c-17.807,22.835-27.22,50.242-27.22,79.257
		c0,22.883,6.073,45.364,17.563,65.013c11.146,19.06,27.099,35.051,46.135,46.246c1.194,0.703,2.503,1.036,3.795,1.036
		c2.571,0,5.074-1.323,6.472-3.699C133.309,234.018,132.117,229.421,128.546,227.322z"/>
	<path d="M116.204,39.048C136.379,23.316,160.596,15,186.237,15c62.855,0,113.992,51.137,113.992,113.993
		c0,28.448-10.538,55.69-29.673,76.71c-2.788,3.063-2.565,7.807,0.498,10.595c1.438,1.309,3.245,1.954,5.047,1.954
		c2.038,0,4.068-0.826,5.548-2.451c21.654-23.788,33.58-54.617,33.58-86.808C315.229,57.866,257.364,0,186.237,0
		c-29.015,0-56.421,9.413-79.257,27.22c-3.267,2.547-3.85,7.26-1.303,10.526C108.225,41.013,112.938,41.597,116.204,39.048z"/>
</g>
</svg>
