<svg xmlns="http://www.w3.org/2000/svg" viewBox="0 0 591.98 728.39"><defs><style>.cls-1{fill:#f2c7a0;}.cls-2{fill:#fff;opacity:0.32;}.cls-3{fill:#966;}</style></defs><g id="Layer_2" data-name="Layer 2"><g id="Layer_2-2" data-name="Layer 2"><path class="cls-1" d="M568.48,312.88C546.89,230.46,519,147.33,524.82,62.34c1.43-20.75,7.3-44.69,26.35-53L212.59,0c-23.76,13.37-37.91,35.69-35.73,61.27,4,46.64,16.79,96.67,28.26,142C212.37,232,222.25,260,228,289c5.51,27.89,7.12,56.4,7.76,84.82A1274,1274,0,0,1,232,504.2c-2.73,34.2-9.84,73.18-39.36,90.67-28.08,16.62-60.2,11.54-77.17,39.42-9.71,16,9.72,18-2.08,29.13-14.24,13.41-63.31,1.31-81.17,6.25C9.37,676,1.43,699,0,722.71c97.07,4.25,317.38,5.68,317.38,5.68s-11.4-14.7,4.17-28.2c41.62-36.07,74.35,6.63,103.08-13.31,21.79-15.13-5.89-15.57-7.34-28.31-3.41-29.94,73.48-10.34,98.81-22.36,28.72-13.63,47.58-42.31,58.87-72C605.22,484.53,590.07,395.3,568.48,312.88Z"/><path class="cls-2" d="M37,695.45a354.37,354.37,0,0,1,86.63,3.09c12.76,2.05,25.53,4.8,38.45,4.37,3.76-.13,8.45-1.32,9.11-5,.85-4.71-5.42-7.1-10.17-7.63L57.29,678.65c-9.32-1-24.61-6.36-32.54.65C13.06,689.64,26.71,696.74,37,695.45Z"/><path class="cls-2" d="M187,695.53a4.59,4.59,0,0,0-.75,2.15,4.11,4.11,0,0,0,2.84,3.68,13.25,13.25,0,0,0,4.91.5A94.62,94.62,0,0,1,209.9,703c7.24,1.13,14.48,3.11,21.79,2.47,2.1-.18,4.41-.72,5.6-2.47,1.36-2,.56-4.94-1.21-6.62s-4.24-2.37-6.65-2.81a87.9,87.9,0,0,0-11.12-1l-18.85-1C194.19,691.23,190.11,690.37,187,695.53Z"/><path class="cls-2" d="M129.88,626.55A6.8,6.8,0,0,0,128,633c1,3.18,4.74,4.51,8,5.08,7.74,1.37,15.66,1.09,23.52,1,14.34-.16,28.7.33,43,1.47,16.32,1.3,32.65,3.43,49,2.59,3-.16,6.19-.45,8.85-2s4.68-4.52,4.08-7.51c-.89-4.48-6.43-6-11-6.42-15.89-1.39-31.9.24-47.81-.81-13.32-.88-26.42-3.58-39.7-4.86C155.65,620.59,137.83,618.07,129.88,626.55Z"/><path class="cls-2" d="M279.13,639.38a7.22,7.22,0,0,0,3.86,2.93c3.57,1.4,7.48,1.58,11.31,1.75,5.32.23,11.11.33,15.41-2.81a7.79,7.79,0,0,0,2.47-2.79c1.64-3.41-.61-7.68-3.9-9.55s-7.26-2-11-2c-4.66,0-9-.55-12.94,2.13C281.23,631.12,276.9,635.32,279.13,639.38Z"/><path class="cls-2" d="M196.28,28.15c-.25,5.06,4.43,9.25,9.37,10.37s10.07,0,15-.89c23.55-4.18,47.7-2.75,71.54-.9,11.9.93,24,1.94,35.63-.9,3.07-.75,6.2-1.85,8.4-4.12s3.19-6,1.51-8.66c-1.53-2.44-4.62-3.29-7.45-3.78-19.44-3.32-39.49,1.63-59-1-10.48-1.39-20.54-4.93-30.89-7.07-9-1.85-20.28-3.27-29,.39C205.41,14.12,196.63,21.22,196.28,28.15Z"/><path class="cls-2" d="M349.94,28.33c-.16,2.73,1.65,5.3,4,6.73a18.52,18.52,0,0,0,7.85,2.22c9.4,1,18.93-.2,28.35.63,8.74.77,17.45,3.26,26.16,2.2,5.94-.72,12.66-4.52,12.52-10.51-.09-3.57-2.77-6.66-5.95-8.26s-6.84-2-10.39-2.26a293.38,293.38,0,0,0-39.78,0C366.05,19.47,350.51,18.42,349.94,28.33Z"/><path class="cls-3" d="M263.1,186.68a35.15,35.15,0,0,1,.88,6.68c.28,5.75-.38,11.48-.21,17.21.14,5,1,9.91,1.15,14.93.14,4.8-.18,9.62,0,14.44.17,3.61.67,7.2.92,10.84.12,1.75.86,5.44-1.67,5.63a8.21,8.21,0,0,1-2.14-.27c-1.75-.34-2.39,0-2.58-2.34-.14-1.87.09-3.78,0-5.69-.23-3.46-.7-6.89-.9-10.33-.77-12.66-1.54-25.34-2.2-38-.12-2.28-.16-4.56-.29-6.84-.08-1.33-.19-2.11-1.86-2.05-4.88.16-9.58,1.71-14.31,1.93.09,1.3.13,1.95.22,3.25.13,1.85.29,3.71.46,5.55,1,11.15,1.85,22.43,2.76,33.62.42,5.1.57,10.54,1.49,15.6.33,1.8.9,3.56,1.06,5.39a7.53,7.53,0,0,0,.2,2.21c-.31,1.09-4.43,1.55-5.34,1.61h-.31c-2-.23-1.39-.22-1.84-2.08a23.73,23.73,0,0,1-.61-3.82c-.22-3-.11-6.12-.33-9.17-1.39-18.83-3-37.73-4.4-56.56a3.63,3.63,0,0,1,3.56-4c6.36-.38,13.19.11,20.06-.09,2.94-.09,5.42-1.25,6.23,2.32Z"/><path class="cls-3" d="M292.37,247.46a9.72,9.72,0,0,1-3.28.75c-11.33-.17-14.89-17.75-15-27.51s1.33-29.6,14.19-29.76c10-.13,14.52,12,14.23,20.8-.12,3.7-2.27,4.39-5.63,4.61-3,.19-6.08.15-9.17.32-2.59.14-5.47.77-5.5,3.82,0,1.57.31,3.1.44,4.66.31,3.8.69,16.4,6.33,16s4-11.16,5.39-12.07a4.33,4.33,0,0,1,2.23-.59c1.53-.11,3,0,4.54-.07,1.23-.09,1.24.57,1.22,1.55-.13,6.29-3.44,15.06-9.95,17.49Zm-9.27-37.21c0,.81,1.88.87,2.49.84a39.32,39.32,0,0,0,6.54-1.25c1.64-.36,2.74-.15,2.79-2.15.09-3.27-2.94-10.16-7.21-10s-4.32,5.85-4.34,8.58c0,.72,0,1.45,0,2.15S283.11,209.65,283.1,210.25Z"/><path class="cls-3" d="M311.88,185.34c6-.38,14.11-2.06,18,3.48a8.39,8.39,0,0,1,1.49,4.59c.12,4.42-3,9.52-6.42,12.1-1.62,1.23-4.57,1.79-5.75,2.86a4.47,4.47,0,0,0-1.19,3.38c0,1.6.26,3.15.23,4.75a170.88,170.88,0,0,0,1,20.56c.31,3.15,1.23,6.18,1.4,9.42.15,2.67.1,3.6-2.74,3.81-4.51.32-4.78-.85-4.95-4.95-.45-11-.15-22.15-.31-33.14-.1-6.86-.86-13.68-.92-20.71,0-2,0-4.09.16-6.15Zm12.73,13a5.55,5.55,0,0,0-5.77-7.49c-1.16.13-1.26,1.16-1.25,2.17s.12,2.19.08,3.29c-.06,1.4-.38,2.81-.39,4.21s.26,2.65,1.72,2.5c1.77-.18,4.94-2.87,5.6-4.68Z"/><path class="cls-3" d="M337.76,204.78c-.12-4.29-.11-8.61-.4-12.91-.09-1.29-.3-3.54-.36-4.85-.12-2.44.6-2.69,2.83-3A15.9,15.9,0,0,1,348,186c6.34,3.5,9.21,12.53,9.73,20,.61,8.87-3.82,12.85-6,16.38-.23.37,14.05,2.29,14,12.69s-16.22,11-24.34,11.47c-1.64.1-1.6-1.07-1.82-2.44a42.91,42.91,0,0,1-.49-4.92c-.57-11.29-.95-22.65-1.29-34C337.77,205,337.77,204.93,337.76,204.78Zm9.46-10.17c-.52-.64-4.46-4.77-4.31-1.71.4,8.3,1.25,18.11,1.6,26.41a1,1,0,0,0,.2.56,3.15,3.15,0,0,0,.43,0c7.73-3.46,6.25-20.17,2.08-25.31Zm11.49,39.54c-.54-5.09-9.18-5.13-12.08-4.89-1.27.1-1.29,1-1.23,2,.11,2.14,0,4.27.17,6.39.08,1.3.51,2.07,1.93,2,6.76-.5,11.46-1.9,11.21-5.51Z"/><path class="cls-3" d="M391.85,242c-3.48,7.3-12.05,7.33-18.92,8.18a61,61,0,0,1-1.13-8.55c-.6-8-.36-16-.66-24-.32-8.68-.88-17.35-1.48-26-.26-3.64-.71-7.25-1-10.89-.29-4.05-.26-5.46,4.5-5.69,2.89-.14,3.27,1.25,3.44,3.6.28,4-.23,7.83-.23,11.77,0,8.83-.16,17.74.39,26.55.09,1.47.28,3.06,1.51,4.05s4.6,1.21,6.44,2.26c4.23,2.44,7.91,8.24,8.2,13.12a11.51,11.51,0,0,1-1.08,5.63Zm-15-11.27c.14,2.07.76,4.08.91,6.15.09,1.25-.27,5.41,1.73,5.27,3.4-.25,6.3-4.55,6.09-7.84-.19-3.07-3.84-7-7-6.83a4,4,0,0,0-.5.1C376.8,228,376.79,229.66,376.86,230.74Zm27.87,6.47a50.48,50.48,0,0,1,.95,5.36c0,.56-.14,1.73.14,2.2-.48,1.09-4.19,1.52-5.31,1.6-2,.14-1.81-.34-2.14-2.06a31.86,31.86,0,0,1-.56-3.76c-.2-3.06,0-6.14-.16-9.17-.71-17.88-1.06-35.9-2.09-53.84,1.17,0,6.43-.25,7,.53a3.76,3.76,0,0,1,.29,1.77c.2,4.39,0,8.77.11,13.13.17,10.18.49,20.38.88,30.55a116.61,116.61,0,0,0,.86,13.69Z"/><path class="cls-3" d="M413.85,203.53v-2.4c.06-3.88.29-7.79,0-11.68-.09-1.15-.35-2.34-.37-3.5,0-1.92,4.18-3.62,5.87-3.69s1.27,3,1.28,3.87c0,6-.05,9-.19,15-.13,4.75-.37,9.5-.48,14.27-.06,3-.12,6.08,0,9.13,0,.57.05,1.15.13,1.72,0,.06.08.67.18.66a7.64,7.64,0,0,0,.33-.86c.41-1.27.79-2.55,1.18-3.82,1.61-5.3,3.34-10.58,5-15.87.76-2.5,7-22.41,7.58-23a5.58,5.58,0,0,1,3.54-1.75c2-.16,2.34,1.53,2.34,3.21,0,2-.59,4.06-.63,6.06-.19,9.11-.22,18.09-.44,27.19-.13,5.87.15,11.74.39,17.72.12,3.05.25,6.14.2,9.23s.27,2.73-2.75,3.2c-.63.09-1.26.27-1.89.32-1.85.13-2.06-5.68-2.1-6.77-.54-13.1.92-26.76,1.65-40.07,0-.5.05-1.3,0-1.83,0-.3-.05-.64-.14-.63-.39,0-1.51,3.59-1.66,4-1.47,4.57-2.59,9.2-4,13.79-2.06,6.89-4.11,13.75-6,20.72-.37,1.38-.64,5.94-1.57,6.74-.47.4-3.74.94-4.47,1-2.31.17-2.73-7-2.79-8.5-.2-4.61.2-9.2.19-13.76,0-6.61-.35-13.14-.42-19.71Zm9.3-26.8c-.28,0-.47-1.18-.5-1.34-.26-1.55-.39-3.13-.55-4.71,4.06-.31,8-.57,11.79-.86.06,1.41.83,2.66.89,4.05.11,2.29-2.42,2.48-4.16,2.59s-3.81,0-5.76.09a14.17,14.17,0,0,0-1.71.18Z"/><path class="cls-3" d="M273,299.24c2.56,7.67,5.52,15.2,6.5,22.84a77,77,0,0,1,.13,15.25c-.68,9.48-3,25.24-13.47,26.92-6.71,1.08-11.14-4-11.06-10.94.05-3.86.13-8.35,5.45-8.83.43,0,.91.19.91.65,0,.8-.63,1.49-.63,2.3,0,2.64.62,11.72,4.34,11.39a4.68,4.68,0,0,0,2.67-1.52c2.77-2.74,3.09-7.79,3.5-11.23a117.21,117.21,0,0,0-.87-32.56,7.44,7.44,0,0,0-1.25-3.37c-.57,3.21-2.55,7-6.07,7.16-9.91.41-14.71-13-16.9-21.36-.74-2.85.82-4.26,3.41-4.47s3.59,2.72,4.11,4.71c.78,3,1.15,6.1,2.37,9.05.94,2.31,3.65,6.55,6.52,6.27,4.23-.43,3.53-7.71,2.73-10.81-.6-2.35-2-4.56-2.61-6.92-.54-2,1.63-2.4,3.16-2.54,3.49-.33,4.76-.68,5.86,3.28.44,1.58.69,3.17,1.2,4.73Z"/><path class="cls-3" d="M281.89,292.07c6.62-.39,15.69-1.79,21.5,4.05a10.81,10.81,0,0,1,2.84,4.74c1.23,4.49-1.12,9.45-4.35,12-1.54,1.21-4.71,1.74-5.8,2.83-.91.92-.85,2.23-.67,3.46.25,1.64.81,3.22,1,4.85a195.43,195.43,0,0,1,.74,21.22c0,3.2.42,6.25,0,9.5-.33,2.69-.62,3.59-3.38,3.8-4.4.35-4.33-.79-3.95-4.86,1.07-11.76,1.56-22.69-.21-34-1.08-6.82-4.23-14.1-6.24-21.31-.58-2.09-1.09-4.19-1.47-6.29Zm18,13.46a5.1,5.1,0,0,0-.1-2c-.84-3.19-5.37-6-8.49-5.73-1.29.11-1.12,1.17-.83,2.2s.74,2.23,1,3.36c.31,1.44.33,2.88.67,4.32s1,2.71,2.58,2.57c2-.18,4.89-2.85,5.18-4.67Z"/><path class="cls-3" d="M317.46,323.47c-.92-11.08,1.76-27.56,16.39-28.11,14.33-.54,22.32,15.25,22.77,27.8s-6.93,26.89-20.07,28.83C321.63,354.21,318.3,333.55,317.46,323.47Zm7.83-1.58c.22,1.87.41,3.71.65,5.54.79,6.1,4.69,19.37,11.73,18.2,9.77-1.62,13.75-14.72,13.65-23.95-.08-7-6.45-20.66-15.44-19.73C325.09,303.05,324.15,312.56,325.29,321.89Z"/><path class="cls-3" d="M368.25,349.55a43,43,0,0,1,.11,5.57,8.16,8.16,0,0,0-.24,2.29c-.77,1.18-4.37,1.74-5.52,1.88-2,.24-1.7-.12-1.68-2a39.24,39.24,0,0,1,.23-4.3c.35-3,1.05-6.07,1.3-9,2-22.62-1.65-41.87-7.9-64,1.05-.1,5.62-.74,6.37,0a4.7,4.7,0,0,1,.63,1.7c1.09,4.27,1.93,8.56,2.94,12.86.65,2.76,1.37,5.51,1.91,8.3.69,3.51.73,7.1,1.13,10.68,1.26-5.42,4.24-9.69,6.64-14.2,1-1.88,5.1-10.6,6.21-11.23,1.5.8,2.25,1.2,3.71,2a1.77,1.77,0,0,1,.19.44c0,8.07-12.55,19.77-13.79,27.63-.12.74,1.23,2.35,1.73,3.07,4.66,8.35,10.82,18.63,11.79,26.31.16,1.34-3.15,3.27-4.46,3.43-4.58-8.86-8-18.5-11.39-27.87.17,8.79,0,17.68.1,26.52Z"/><path class="cls-3" d="M275.45,435.19c3,3.63,4.16,15.09,4.3,20.2a14.41,14.41,0,0,1-2.16,8.83c-1.79,2.58-7.23,5.85-8.71,6.94-.66.49-10.63,2.66-12.12,2.77-1.82.13-2.36.14-2.49-1.91-.1-1.7.33-3.43.28-5.11-.47-14.44.38-29,.61-43.43.11-6.84,0-13.7-.53-20.45-.15-1.88-.62-3.72-.73-5.59-.16-2.64.17-4.76,3.15-5,2.6-.18,5.11.43,7.62.27s4.29-.75,4.47,2.74c.08,1.56.39,6.2-1.69,6.33s-4.08-1.29-6.23-1.15c-1.67.11-1.39,1.29-1.32,2.69.18,3.57.9,7.11.94,10.69.07,5.41-.24,11,.17,16.37.06.75.06,2.48,1.11,2.41s2.08-.71,3.19-.78a10,10,0,0,1,2,.17c3.25.39,5.81.12,8.18,3ZM273.5,451.1c-.14-13-6.3-10.63-6.88-11.6-1.3,0-2.46-.73-3.79-.64-2.13.15-2.33,2.45-2.36,4.19-.05,2.87.63,5.6.7,8.43.07,2.46.18,4.95.2,7.41,0,1.66-.38,3.34-.33,5,0,1,.31,2,1.43,1.87a14.35,14.35,0,0,0,3.6-1.14c5.39-2.32,7.17-6.12,7.4-11.92C273.48,452.07,273.49,451.74,273.5,451.1Zm-4.07-13.05h0Zm6,12.3,0,0c0,.45,0,.68,0,1.13v0C275.4,451,275.39,450.77,275.39,450.35Z"/><path class="cls-3" d="M303.21,459.2A9.23,9.23,0,0,1,300,460c-11.44-.22-14.72-18.39-15-28.24-.28-9.33.43-30.17,10.8-30.75,8.51-.47,13.94,13,14.6,21.45.31,3.84-1.76,4.56-4.92,4.77-2.85.19-5.67.14-8.45.32-2.35.15-4.87.81-4.75,4,.06,1.63.43,3.22.62,4.83.47,3.93,1.25,16.87,6.78,16.49s3.24-11.46,4.55-12.4a3.88,3.88,0,0,1,2.12-.61c1.49-.1,3,.07,4.48,0,1.22-.08,1.29.6,1.36,1.61.45,6.5-2.48,15.41-8.92,17.85Zm-10.7-38.34c0,.84,1.69.89,2.23.86a31.23,31.23,0,0,0,5.73-1.31c1.45-.38,2.48-.15,2.35-2.23-.22-3.4-3.49-10.5-7.12-10.29s-3.32,6.05-3.18,8.87c0,.74.09,1.49.09,2.23S292.48,420.24,292.51,420.86Z"/><path class="cls-3" d="M336.11,388.86c7.57,6.46,9.15,17.93,9.81,27.27.07,1,.12,1.95.14,2.92-.93,0-1.85.17-2.78.24a8.25,8.25,0,0,1-2.22-.08c-1.9-.4-1.34.08-1.81-1.86-1.24-5.16-1-22.38-8.93-21.8-6.89.5-5.79,15.61-5.45,20.23.21,3,.63,6,.82,9,.63,9.76,2,34.21,10.4,35.78,1.87.35,4-3.67,4.4-5.85s-.16-4.42.2-6.61c.38-2.38.41-1.83,2.58-2.18,1.45-.23,2.88-.54,4.31-.87,0,6.22.74,13.48-3,18.86a9.85,9.85,0,0,1-7.28,4.38,9.25,9.25,0,0,1-6.59-2.22c-10.44-9.14-10.84-27-11.66-39.57-.43-6.44-.87-13-.81-19.46.07-8.36,2.46-18.41,12.75-19.15a9.26,9.26,0,0,1,5.1,1Z"/><path class="cls-3" d="M376.57,393.53a35.34,35.34,0,0,1,.9,6.05c.38,5.25,0,10.52.36,15.77.33,4.57,1.35,9.07,1.69,13.67.31,4.4.16,8.82.48,13.21.23,3.29.77,6.55,1,9.85.12,1.75.69,4.93-1.78,5.11a8.89,8.89,0,0,1-2.12-.23c-1.59-.29-2.35.09-2.51-2.12-.12-1.69.13-3.4,0-5.13-.22-3.14-.7-6.25-1-9.38-1-11.5-2.08-23.11-3-34.61-.16-2.06-.23-4.15-.37-6.22-.1-1.32-.28-1.9-1.72-1.8-3.52.26-6.85,1.72-10.46,1.95l.2,2.94c.12,1.67.27,3.34.43,5,1,10.12,1.81,20.28,2.69,30.41.41,4.59.53,9.54,1.4,14.08a42.27,42.27,0,0,1,1,4.86c0,.41-.11,1.68.12,2-.38,1-4.55,1.42-5.45,1.48-2,.15-1.64-.33-2-1.85a21.17,21.17,0,0,1-.54-3.45c-.2-2.76-.07-5.53-.27-8.28-1.26-17-2.75-34.07-4-51.07-.16-2.13,1.63-3.5,3.58-3.64,5.21-.38,10.48-.09,15.71-.47,2.45-.17,4.81-1.38,5.6,1.87Z"/><path class="cls-3" d="M413.41,436c.68,2.16,4.39,12.11,4.48,13.27s-.95,1.09-1.69,1.15l-1.18,0c-4.53,0-4-2-5.14-5.69-1.27-4.12-2.89-8.12-4.21-12.22-1.37-4.27-2.55-8.6-3.94-12.87-.55-1.69-2.22-10.27-3.22-10.83-.71,8.56-1.37,17.07-1.57,25.66-.11,4.7-.95,9.37-.9,14.06,0,2.63.56,2.51-2,3.41a5.2,5.2,0,0,1-1.29.27,9.87,9.87,0,0,1-4.08-.7c-.27-6.81,1.59-13.67,2-20.46.52-8.48,1.3-16.92,1.93-25.38.15-2-.46-8.77.87-10,.69-.63,2.75-.84,3.66-.9a6.42,6.42,0,0,1,2.39.12c1.74.7,2.34,4.78,2.82,6.44,3.54,11.58,7.27,23.09,11,34.61Z"/><path class="cls-3" d="M452.55,457.74c-1.06,1.5-3.11,1.69-4.73,1.84-10.68,1-20.63-5.43-21.19-16.78-.28-5.58,2-11.13,8.18-11.58,3.55-.25,7.19,2.13,8.59,2a1.91,1.91,0,0,0,.44-.15c-1-13.6-1.16-29.51-6.79-42.14a5.32,5.32,0,0,0-4.65-2.46c-4.16.3-6.35,5-6.08,8.76.24,3.34.29,4.06-3.11,4.31-1.58.11-5.23.8-5.4-1.57-.16-2.2,1.05-5.81,1.93-7.83,2.33-5.37,7.85-10.86,13.87-11.29a9.37,9.37,0,0,1,4.12.61c7.35,2.92,9.39,16.62,10.63,23.55a225.25,225.25,0,0,1,2.85,23.73c.56,7.71.84,15.43,1.4,23.13.13,1.84.73,4.1-.06,5.84Zm-18.08-13.8c.39,5.3,4.45,9.21,9.76,8.82,1.78-.12,1.84-2,1.74-3.36-.17-2.22-1-4.33-1.17-6.55-.31-4.31-1.43-5.07-5.59-4.77C436,438.31,434.25,440.82,434.47,443.94Z"/><path class="cls-3" d="M462.7,386.25c-1.05-.09-4.34-.05-5-.71a4.82,4.82,0,0,1-.18-1c-.29-4-.49-5,3.79-5.28,2.56-.18,5.12.06,7.67-.13,1.89-.13,3.74-.7,5.65-.84,1.37-.1,3.52-.26,3.65,1.59.09,1.23.35,2.43.44,3.63.19,2.64-6.77,0-6.47,4.1.07,1,.25,1.93.36,2.89,1.17,10.22,2,20.51,2.74,30.75.76,10.6,1.52,21.29,2.87,31.85.08.67.18,1.33.23,2s.11,1.85-.92,1.92a8.83,8.83,0,0,1-2.9-.64c-2-.56-2.49-.09-2.68-2.73-.1-1.31.08-2.63,0-3.93-1.54-19.86-4.05-40-5.6-59.84-.26-3.39-.29-3.32-3.61-3.65Z"/><path class="cls-3" d="M514,402.1c1,10.84,1.76,21.71,2.67,32.53.17,2,.75,4,.9,6.09,0,.67,0,2.13-.9,2.2a10.26,10.26,0,0,1-1.81-.26c-3-.39-3.89-2-4.09-4.9-.18-2.48-.33-11.41-1.54-13.1-.87-1.2-1.86-1.27-3.21-1.17-2.33.17-4.57-.66-6.77-.51-1.78.13-1.58,2.31-1.49,3.62.15,2,.52,4,.74,6,.19,1.83.92,3.58,1.05,5.43.16,2.15-2.86,2.61-4.47,2.73s-3.43.08-3.58-2c-.12-1.68.38-3.36.26-5-.25-3.49-.93-6.93-1.18-10.43-.63-8.66-.64-17.37-1.26-26-.18-2.42-.59-4.82-.76-7.24-.07-1,0-1.43,1.11-1.51,1.72-.13,6.27-1,6.44,1.47.12,1.55-.37,3.09-.33,4.62,0,1.05.09,2.1.17,3.15.28,3.88.79,7.73,1,11.61.08,1.7-.35,3.39-.23,5.07.14,1.9,1.38,2.32,3.07,2.42a51.61,51.61,0,0,0,6.58.09,3.34,3.34,0,0,0,1.5-.31c1.14-.8.85-4.88.76-6.1-.19-2.61-.64-5.19-.83-7.79s-.17-5.12-.35-7.68c-.11-1.56-.5-3.1-.61-4.67-.14-1.91.53-3.06,2.56-3.22,2.57-.19,3.62,1.19,3.79,3.61.27,3.77.49,7.52.84,11.29Z"/><path class="cls-3" d="M523.52,413.81c-1-11.61,2.74-27.63,15.75-29.14,13.44-1.56,18.86,18.28,20.74,28.86,2.06,11.56-1.6,26.86-15.28,28.48C530.22,443.73,524.44,424.46,523.52,413.81Zm6-2.25c.18,1.86.43,3.72.78,5.57,1.18,6.16,6.83,19.42,13.74,18.39,9.86-1.47,10.58-15.72,9.37-24-1.06-7.29-5.39-21.19-13.56-20.24C530.08,392.37,528.65,402.24,529.54,411.56Z"/><path class="cls-3" d="M562.21,380.25a37.6,37.6,0,0,1-1-5.39,8.71,8.71,0,0,0-.09-2.19c.35-1.09,4.39-1.58,5.31-1.65,2-.16,1.6.52,1.91,2.05a30.75,30.75,0,0,1,.54,3.85c.22,2.89.14,5.85.52,8.72,1.74,13.31,4.44,26.9,6.67,40.23a1.72,1.72,0,0,1-1.55,2.05c-.71.05-4,.21-4.47-.42a5.32,5.32,0,0,1-.47-1.82c-.72-4.55-1.23-9.14-2-13.71-.32-1.93-.66-3.87-1-5.79-1.57-8.35-2.76-18-4.34-25.93Zm11,55.8c.82,0,1.65,0,2.48,0a2,2,0,0,1,2,1.72c.46,2.62.75,5.3,1,7.91a1.79,1.79,0,0,1-1.66,2c-.76.06-3.94.21-4.44-.41a5.06,5.06,0,0,1-.37-1.79c-.25-2.42-.42-4.94-.65-7.4a1.73,1.73,0,0,1,1.67-2Z"/></g></g></svg>