<svg xmlns="http://www.w3.org/2000/svg" viewBox="0 0 911.18 946.96"><defs><style>.cls-1{fill:#5e4135;}.cls-2{fill:#875950;}.cls-3{fill:#aa7263;}.cls-4{fill:#eaa549;}.cls-5{fill:#efc71b;}.cls-6{fill:#fff;opacity:0.34;}.cls-7{fill:#f2c7a0;}.cls-8{fill:#9b221c;}.cls-9{fill:#b52d1f;}.cls-10{fill:#db3028;}</style></defs><g id="Layer_2" data-name="Layer 2"><g id="Layer_2-2" data-name="Layer 2"><path class="cls-1" d="M518.74,536.55c1.67,5,54.61,72.8,54.61,72.8l14.26-1.73-41.06-90Z"/><path class="cls-1" d="M418.11,548.13c1.68,5,54.62,72.8,54.62,72.8L487,619.2l-41.05-90Z"/><path class="cls-2" d="M355.19,504.21l67.48,73.59s14.78,2,36.43-4.43c13.3-4,18.21-12,18.21-12l-33.7-83.91Z"/><path class="cls-2" d="M309.47,272.64c4.95-29.18,22.43-55,41.84-77.81,27-31.79,58.54-59.86,84-92.83a330.75,330.75,0,0,0,46.23-81.41C483.8,14.92,486,9,490.42,4.69s11.82-6.39,17-3A14.42,14.42,0,0,1,512.62,9c4.8,13.08-.87,27.44-6.47,40.29C507.45,39.19,519,32,529.27,33.7s18.25,10.95,19.81,21-2.56,20.47-9.42,28.2C547.6,75.39,558,67.25,568.48,70.6c10.14,3.24,13.68,15.29,14.73,25.63,6.09,59.73-20.47,118.45-54.09,169-15.54,23.38-33,46-55.32,63.39s-50.18,29.25-78.69,28.59c-18-.42-48.38-1.51-63-13.16C311.61,327.81,305.35,296.93,309.47,272.64Z"/><path class="cls-3" d="M141.84,279.28c-34,59.31-19.62,149.59,93.08,200.28s234.32,32.1,353.93,4.7,220.77-70.94,220.77-70.94l-12.69-28.74-90.87,36.73,98.42-49L790.19,343l-88.62,28.15L775,333.78l-27.91-32.12s-62.28,44.75-141.41,25.93C535.44,310.89,413,225.44,340.72,209.82,254,191.08,186.22,201.84,141.84,279.28Z"/><polygon class="cls-3" points="132.91 382.41 46.9 281.08 144.18 313.05 132.91 382.41"/><polygon class="cls-3" points="204.88 229.07 191.52 119.06 296.23 212.88 204.88 229.07"/><polygon class="cls-1" points="193.96 139.15 158.84 90.73 172.64 83.95 180.18 93.8 179.59 74.61 196.82 72.52 200.07 99.32 202.66 77.48 212.39 80.83 208.84 134.57 193.96 139.15"/><polygon class="cls-1" points="59.08 295.43 0 269.77 9.59 252.78 23.64 262.93 8.94 242.62 20.55 232.77 31.98 250.06 29.7 236.14 40.74 230.32 72 289.33 59.08 295.43"/><path class="cls-4" d="M208.85,365.55c15,14.49,17,36.3,4.35,48.72s-35.06,10.74-50.09-3.75-17-36.29-4.35-48.71S193.82,351.07,208.85,365.55Z"/><path class="cls-5" d="M201.67,372.61c10.32,9.94,11.65,24.9,3,33.42s-24.06,7.37-34.37-2.57-11.65-24.9-3-33.42S191.36,362.67,201.67,372.61Z"/><path class="cls-1" d="M190,413.9A31,31,0,0,1,168.79,405a29.47,29.47,0,0,1-9.36-20.72,21.77,21.77,0,0,1,6.36-15.8A22.91,22.91,0,0,1,182,362.18a31,31,0,0,1,21.17,8.88,29.45,29.45,0,0,1,9.36,20.72,21.73,21.73,0,0,1-6.36,15.79A22.88,22.88,0,0,1,190,413.9Zm-8-47.41a18.59,18.59,0,0,0-13.18,5.09,17.41,17.41,0,0,0-5.07,12.69,25.1,25.1,0,0,0,8,17.64A26.6,26.6,0,0,0,190,409.58a18.57,18.57,0,0,0,13.19-5.09,17.48,17.48,0,0,0,5.07-12.69,25.13,25.13,0,0,0-8-17.64A26.67,26.67,0,0,0,182,366.49Z"/><path class="cls-1" d="M169.31,380.31a87.45,87.45,0,0,0,32.92,27.37,1.62,1.62,0,0,0,.81.22,1.11,1.11,0,0,0,.57-.29l3-2.36a1,1,0,0,0,.48-.67,1.42,1.42,0,0,0-.3-.8c-7.16-11.38-15-22.83-25.71-31.32a23.93,23.93,0,0,0-6.46-3.92c-2.34-.84-4.93-1-6.85.08C163.25,371.15,166.65,376.65,169.31,380.31Z"/><path class="cls-4" d="M291,278.88c15,14.48,17,36.29,4.35,48.71s-35.06,10.74-50.09-3.75-17-36.29-4.35-48.71S275.92,264.39,291,278.88Z"/><path class="cls-5" d="M283.77,285.93c10.31,9.94,11.65,24.9,3,33.42s-24.06,7.37-34.37-2.56-11.65-24.91-3-33.42S273.46,276,283.77,285.93Z"/><path class="cls-1" d="M272.06,327.22a31,31,0,0,1-21.17-8.88,29.47,29.47,0,0,1-9.36-20.72,21.73,21.73,0,0,1,6.36-15.79,22.88,22.88,0,0,1,16.21-6.33,31,31,0,0,1,21.17,8.88,29.47,29.47,0,0,1,9.36,20.72,21.73,21.73,0,0,1-6.36,15.79A22.88,22.88,0,0,1,272.06,327.22Zm-8-47.41a18.58,18.58,0,0,0-13.18,5.09,17.47,17.47,0,0,0-5.08,12.7,25.17,25.17,0,0,0,8,17.63,26.65,26.65,0,0,0,18.18,7.68,18.58,18.58,0,0,0,13.18-5.09,17.47,17.47,0,0,0,5.08-12.7,25.15,25.15,0,0,0-8.05-17.63A26.61,26.61,0,0,0,264.1,279.81Z"/><path class="cls-1" d="M251.4,293.63A87.6,87.6,0,0,0,284.32,321a1.58,1.58,0,0,0,.82.22,1.15,1.15,0,0,0,.57-.29l3-2.36a1,1,0,0,0,.48-.67,1.42,1.42,0,0,0-.3-.8c-7.16-11.38-15-22.83-25.71-31.32a23.89,23.89,0,0,0-6.46-3.91c-2.34-.85-4.93-1-6.85.08C245.35,284.47,248.75,290,251.4,293.63Z"/><path class="cls-1" d="M225.44,369.85c3.34,25.18,22.05,47.75,46.6,56.22a27.45,27.45,0,0,1,.62-21.69c3.16-6.76,9.08-12.31,10.85-19.53,2-8.12-1.9-16.75-8-22.6S242.49,335,229.77,346.69C224.38,351.62,224.64,363.77,225.44,369.85Z"/><polygon class="cls-4" points="217.78 215.48 205.03 150.63 209.83 150.05 257.01 207.79 217.78 215.48"/><polygon class="cls-4" points="128.64 364.92 73.62 302.66 77.6 300.84 125.95 321.11 128.64 364.92"/><path class="cls-6" d="M235.17,386.35a11.45,11.45,0,0,0,3,4.15,4.61,4.61,0,0,0,4.9.66,5,5,0,0,0,2.19-4.44c.06-5-3.72-9.2-5.61-13.87-1.82-4.51-1.55-9-.3-13.56.84-3.1.72-5.18-2.91-6.09-9.95-2.5-7.42,11.4-6.52,16.71A60.37,60.37,0,0,0,235.17,386.35Z"/><path class="cls-3" d="M445.39,491.25l76.37,74.52a98.51,98.51,0,0,0,36.43-4.43c13.23-4.16,18.21-12,18.21-12l-33.71-83.91Z"/><path class="cls-7" d="M855.23,929.61s-6-19.21,10-27,32.64,4.8,32.64,4.8L756.16,635.22l-30.24-10.71-35.13,18.65,121.7,281.67Z"/><path class="cls-8" d="M708.57,674.35l11.49-8.67s-13.22-24.33-4.92-31c24.7-20,39,8.74,39,8.74L895,909.56l16.17-12.26L766.62,634s-7.93-16.3-30.59-20.11c-29.47-4.94-359.4,3.25-359.4,3.25s-28.11.88-38.49,24.46a62,62,0,0,0-1.89,44.66l372.32-11.86Z"/><path class="cls-9" d="M464.49,947c-2.14-4.42-128.24-260.75-128.24-260.75l372.32-11.86L843.92,944.51Z"/><polygon class="cls-10" points="895.01 909.56 911.18 897.3 766.62 633.95 754.11 643.37 895.01 909.56 895.01 909.56"/><polygon class="cls-10" points="843.92 944.51 855.23 929.61 720.06 665.68 708.57 674.35 843.92 944.51"/><path class="cls-3" d="M725.52,660.33s-15.85-17.25-2.83-23.29,25.37,8.74,25.37,8.74Z"/><path class="cls-1" d="M571.53,601.36c-1.26.47-18.37,4.16-23.85,24.47s10.91,48.91,10.91,48.91l7-35.13a185.33,185.33,0,0,0,9.2,21.25,135.42,135.42,0,0,0,11.11,17.37s-4.9-36.91,4.36-48.88A48.61,48.61,0,0,1,616,612.61s-9-11.37-19-14.34a44.56,44.56,0,0,0-14.86-1.74Z"/><path class="cls-1" d="M468.46,603.25c-1.27.47-18.37,4.16-23.85,24.47s10.9,48.91,10.9,48.91l7-35.13a185.33,185.33,0,0,0,9.2,21.25,135.9,135.9,0,0,0,11.1,17.37s-4.9-36.91,4.36-48.88a48.66,48.66,0,0,1,25.71-16.74s-9-11.37-19-14.34a44.58,44.58,0,0,0-14.86-1.74Z"/><path class="cls-8" d="M548.62,694.62c.9,2.31,89.38,228.15,89.38,228.15l20.59,1.13L562.11,693Z"/><polygon class="cls-8" points="594.53 698.73 682.24 927.08 711.67 923.51 623.6 695.2 594.53 698.73"/><path class="cls-4" d="M135.5,313.87l28.06,11.67-15.81-36.69-5.37,9.32s5.93,13.3,6.09,12.85-10.07-5.57-10.07-5.57Z"/><path class="cls-4" d="M154.24,279.3c.36,1.23,29.23,14.3,29.23,14.3l-10.75-43.73-7,11,6.39,13.24-15.6-6.38Z"/><path class="cls-4" d="M181.18,240.34l27.4,19.19-1-36.84-8.92,3.21s1.17,16.85.23,16.33-8.8-11.37-8.8-11.37Z"/><path class="cls-2" d="M324.88,494.53l33.5-5.06L331.15,464l-4.1,8.36S340,483.54,339,483.8s-14.51-2.06-14.51-2.06Z"/><path class="cls-2" d="M448.54,419.51l33.5-5.06L454.82,389l-4.11,8.36s13,11.16,11.92,11.42-14.51-2.06-14.51-2.06Z"/><path class="cls-2" d="M342.23,353.86l33.5-5.05-27.22-25.46-4.11,8.36s13,11.16,11.91,11.43-14.5-2.06-14.5-2.06Z"/><path class="cls-2" d="M390.81,463.78l33.5-5.06-27.22-25.45L393,441.63s13,11.15,11.92,11.42S390.39,451,390.39,451Z"/><path class="cls-2" d="M476.38,491.3l31.34-12.71L475,460.27,473,469.33s15.35,7.79,14.4,8.29S472.83,479,472.83,479Z"/><path class="cls-2" d="M561.29,443.81l31.33-12.72-32.74-18.32L558,421.83s15.35,7.79,14.4,8.29-14.62,1.39-14.62,1.39Z"/><path class="cls-2" d="M571.38,372.39l31.33-12.72L570,341.35,568,350.41s15.36,7.79,14.4,8.3-14.61,1.38-14.61,1.38Z"/><path class="cls-2" d="M639.49,455.89l31.33-12.71-32.74-18.32-1.94,9.06s15.36,7.79,14.4,8.29-14.61,1.39-14.61,1.39Z"/><path class="cls-2" d="M306,431.77l33.81,1.72-21.25-30.37-5.78,7.37S323.12,424,322,424.07s-13.74-4.92-13.74-4.92Z"/><path class="cls-4" d="M172.77,318.69c3.07.05,25.14,10.12,25.14,10.12l-13.48-27.25-4.79,5.25,4.76,9.2-7.6-3.63Z"/><polygon class="cls-4" points="195.97 283 216.93 299.76 209.34 265.81 204.2 272.81 205.29 281.87 200.06 278.31 195.97 283"/><path class="cls-4" d="M205.46,322.68c6.41,5.32,21.8,11.07,21.8,11.07l-9.39-26.29L215,312.29l1.6,9L208,318.1Z"/><path class="cls-1" d="M389.31,262.3C406.16,237.62,433,221.06,460.24,208c38-18.23,75.72-33.71,112.82-53.62,28-15,50.19-31.89,79.26-53.41,5-3.68,8.93-8.84,14.77-11s13.44-1.1,16.68,4.06a14.27,14.27,0,0,1,1.66,8.8C684.26,116.67,673,127.53,662.5,137c5.46-8.72,19-10.7,27.61-5s11.94,17.33,9.1,27.14-11,17.69-20.49,22c10.4-3.69,23.3-7,31.4.3,7.83,7,6,19.45,2.53,29.33-19.73,57-68.71,100.06-120.66,132.81-24,15.14-49.42,28.83-77.08,35.76s-58,6.62-83.59-5.41c-16.17-7.59-43.31-20.77-51.7-37.29C367.91,313.59,375.29,282.86,389.31,262.3Z"/><path class="cls-2" d="M561.82,231.34q41.61-31.58,80.47-65.83c8.84-7.79,17.85-15.87,29.09-20.48a26.23,26.23,0,0,1,9.94-2.3c3.4,0,6.8,1.22,8.58,3.64s1.69,5.81.45,8.71a28.3,28.3,0,0,1-5.76,7.87,142.76,142.76,0,0,1-12.49,11.68c4.37-3,3.65-9.85-1.22-11.5-4.26-1.44-9.23.84-13.23,3.27-12.47,7.56-23.07,17.28-33.94,26.6-23.14,19.86-48.07,38.38-75.65,53.14-7.25,3.88-15.16,8.52-23.08,11,1.73-4.47,12.18-8.35,16.46-11.16C548.47,241.37,555.17,236.38,561.82,231.34Z"/><path class="cls-2" d="M551.24,189.16c27.09-20.37,53-39.71,78.28-61.25,8.62-7.35,16.57-14.15,28.71-21.74a24.25,24.25,0,0,1,9.69-3.14c3.31-.43,6.63.07,8.35,1.76s1.63,4.39.41,6.86a28.22,28.22,0,0,1-5.63,7,163.16,163.16,0,0,1-12.2,10.92c4.27-3,3.58-8.3-1.15-9-4.16-.58-9,1.89-12.91,4.34-12.17,7.65-22.53,16.77-33.14,25.6-22.6,18.83-46.94,36.82-73.86,52.19-7.08,4-10.74,4.8-18.46,7.82,1.69-3.77,7.83-4.28,12-7.07C538.2,198.89,544.75,194,551.24,189.16Z"/><path class="cls-2" d="M573.7,277.23q42.87-31.56,83-66.4c9.13-7.92,18.45-16.15,29.91-20.28a23.17,23.17,0,0,1,10.08-1.64c3.41.34,6.81,2,8.52,4.9s1.52,6.69.18,9.83a28.94,28.94,0,0,1-6,8.3,136.77,136.77,0,0,1-12.93,11.95c4.49-3,4-10.73-.87-13-4.25-2-9.32.08-13.42,2.43-12.78,7.32-23.76,17.24-35,26.69-23.91,20.14-49.57,38.6-77.79,52.6-7.42,3.68-15.53,8.14-23.57,10.19,1.88-4.85,12.51-8.23,16.91-11C560,287.25,566.86,282.26,573.7,277.23Z"/></g></g></svg>