<svg xmlns="http://www.w3.org/2000/svg" viewBox="0 0 604.12 819.93"><defs><style>.cls-1{fill:#ba700d;}.cls-2{fill:#bc8b28;}.cls-3{fill:#5e4135;}.cls-4{fill:#efc71b;}.cls-5{fill:#f2c7a0;}.cls-6{fill:#cea98a;}.cls-7{fill:#fff;opacity:0.32;}.cls-8{fill:#b52d1f;}.cls-9{fill:#9b221c;}</style></defs><g id="Layer_2" data-name="Layer 2"><g id="Layer_2-2" data-name="Layer 2"><path class="cls-1" d="M497.46,280.41c16.84-5.32,34.08-10,51.73-10.75,8.55-.36,19,1.43,22.1,9.4,3.27,8.34-3.8,16.87-10.29,23.06,13.78-1.17,30.68-.8,37.47,11.25,4.39,7.81,2.35,18-2.7,25.37s-12.62,12.66-20,17.73c5.55-.24,11.24-.3,16.5,1.48s10.09,5.75,11.45,11.13c1.53,6-1.48,12.24-5,17.33-9.31,13.37-22.66,23.29-35.76,33l-58.59,43.24c-22.16,16.35-44.52,32.83-69.58,44.27s-53.32,17.62-80.34,12.32-52.36-23.51-61.55-49.47c-6.88-19.46-5.82-42.91-3.09-63.09,2.33-17.23,11.26-26,25-35.9,35.66-25.47,74.46-47,114.52-64.63A667.68,667.68,0,0,1,497.46,280.41Z"/><path class="cls-2" d="M411.4,176.14c-53-62.46-157.08-57.23-157.08-57.23s-104-5.23-157.08,57.23C55.58,225.2,41.06,440.81,58.75,533.4S117,649.91,150.27,667.59s104,13.53,104,13.53,70.74,4.16,104.05-13.53S432.21,626,449.89,533.4,453.06,225.2,411.4,176.14Z"/><path class="cls-1" d="M407.92,390.81c.53,3.15,11.47,39.42,11.47,39.42l18.38-34.17-10.4-5.25L423.69,402l-4.3-12.8Z"/><path class="cls-3" d="M86.53,791s22.83-21.43,62-20,69.87,23.29,69.87,23.29-29.63-3.65-28.67-2.63c2.55,2.69,21.22,28.26,21.22,28.26s-41.38-17-72.91-23.74C107.82,789.76,86.53,791,86.53,791Z"/><path class="cls-3" d="M121.93,670.85c0,1.87,15,116.93,15,116.93h14.77L162,662.47Z"/><path class="cls-2" d="M84.25,607.75,98.38,714.68s-.37,4.57,21.73,6.68c47.53,4.54,74.86,0,74.86,0l32.4-71.55Z"/><path class="cls-1" d="M60.73,298.74c-4.65,2.79-8.12,7.16-11.09,11.69C38.57,327.32,33.2,347.32,30,367.25,18.61,437.61,31.65,512.4,5.74,578.79,3.23,585.23.33,591.71,0,598.61s2.71,14.49,9,17.27,13.81,0,20.23-2.9c-3.46,6-6.28,12.74-5.81,19.67s5.09,13.94,11.91,15.24c3.81.73,7.74-.36,11.34-1.82a55.69,55.69,0,0,0,23.65-18.33c-1.77,3.2-3.58,6.57-3.69,10.23s2.09,7.68,5.69,8.32c2.71.49,5.37-1,7.59-2.59,7.41-5.38,13-12.9,18.09-20.49,46.43-68.85,66.36-156.67,47.09-237.45C138.85,359.37,101.72,274.19,60.73,298.74Z"/><path class="cls-3" d="M337,790.34s22.83-21.43,62-20,69.88,23.29,69.88,23.29S439.21,790,440.17,791c2.54,2.69,21.22,28.25,21.22,28.25s-41.38-17-72.91-23.73C358.3,789.06,337,790.34,337,790.34Z"/><path class="cls-3" d="M372.41,670.15c0,1.86,15,116.93,15,116.93h14.76l10.25-125.31Z"/><circle class="cls-1" cx="153.94" cy="260.37" r="55.56" transform="translate(-134.83 350.37) rotate(-76.72)"/><path class="cls-4" d="M192.06,260.37a38.12,38.12,0,1,1-38.12-38.12A38.12,38.12,0,0,1,192.06,260.37Z"/><path class="cls-3" d="M153.94,301.93a41.56,41.56,0,1,1,41.56-41.56A41.6,41.6,0,0,1,153.94,301.93Zm0-76.24a34.68,34.68,0,1,0,34.68,34.68A34.72,34.72,0,0,0,153.94,225.69Z"/><path class="cls-3" d="M143.53,235.08A109.53,109.53,0,0,0,149,297.71a2.18,2.18,0,0,0,.7,1.07,2.14,2.14,0,0,0,1.05.28l6.56.62a2.05,2.05,0,0,0,1.41-.2,2.15,2.15,0,0,0,.64-1.16C164.91,279,169.8,259,167.49,239a30.2,30.2,0,0,0-2.88-10.76c-1.76-3.3-4.7-6.12-8.34-7C147.69,219.23,144.91,228.5,143.53,235.08Z"/><circle class="cls-1" cx="353.73" cy="260.37" r="55.56" transform="translate(40.06 567.82) rotate(-80.78)"/><path class="cls-4" d="M391.84,260.37a38.12,38.12,0,1,1-38.11-38.12A38.12,38.12,0,0,1,391.84,260.37Z"/><path class="cls-3" d="M353.73,301.93a41.56,41.56,0,1,1,41.55-41.56A41.6,41.6,0,0,1,353.73,301.93Zm0-76.24a34.68,34.68,0,1,0,34.67,34.68A34.72,34.72,0,0,0,353.73,225.69Z"/><path class="cls-3" d="M343.32,235.08a109.45,109.45,0,0,0,5.42,62.63,2.27,2.27,0,0,0,.71,1.07,2.09,2.09,0,0,0,1.05.28l6.55.62a1.53,1.53,0,0,0,2.05-1.36C364.69,279,369.58,259,367.27,239a30.2,30.2,0,0,0-2.88-10.76,13.32,13.32,0,0,0-8.33-7C347.47,219.23,344.7,228.5,343.32,235.08Z"/><path class="cls-2" d="M76.22,221c1-3.18,0-141.7,0-141.7l18.08-14L164,158.11Z"/><polygon class="cls-2" points="349.64 150.92 405.2 66.31 420.76 66.31 440.19 251.53 349.64 150.92"/><path class="cls-1" d="M76.32,93.6,35.86,33.44l15.49-9.1L64,39.89,56.09,10.51,76.32,5.23l7.39,28.21L90,5.23s19.77-5.85,17.69,0S103,76.85,103,76.85Z"/><polygon class="cls-1" points="400.11 74.06 378.11 15.73 405.2 10.51 411.4 37.16 421.81 0 447.81 10.51 432.21 31.93 457.29 20.96 467.58 36.68 422.85 81.14 400.11 74.06"/><path class="cls-4" d="M94.3,184.67c1.62-2.67,0-73.85,0-73.85l6.94-6,35.92,42.58Z"/><polygon class="cls-4" points="366.68 144.75 399.94 93.6 405.2 98.18 413.92 184.67 366.68 144.75"/><rect class="cls-5" x="105.9" y="346.32" width="308.01" height="164.98"/><path class="cls-6" d="M115.73,357c1.48.66,147.84,83.15,147.84,83.15l141.78-84.79,3.93-2.35L262.51,454.76Z"/><path class="cls-6" d="M111.89,504.65c2-1.33,146.17-58.54,146.17-58.54l4.45,8.65Z"/><path class="cls-3" d="M272.3,288.36c-3.92-4.15-15.22-7.54-15.64-7.43-.46-.11-11.69,3.6-15.5,7.86-6.77,7.55-10.78,17.95-7.91,33.52,2.6,14.12,24.07,46.65,24.5,46,.46.64,21.09-32.46,23.32-46.65C283.54,306,279.26,295.74,272.3,288.36Z"/><path class="cls-7" d="M238.31,316.13c.68,2.14,2.15,4.41,4.39,4.54,2,.11,3.66-1.59,4.4-3.44s.85-3.88,1.39-5.79a14,14,0,0,1,5-7.16c1.8-1.48,4-2.35,4.45-4.9.72-3.86-3.07-7.09-6.46-8C239.8,288.39,235.79,308.26,238.31,316.13Z"/><path class="cls-6" d="M277.21,458.18c1.4.35,133.66,46.32,132.07,46.47S284.17,453,284.17,453Z"/><circle class="cls-8" cx="262.51" cy="442.04" r="41.87"/><path class="cls-9" d="M241.34,445.49a32.57,32.57,0,0,1,32.58-32.57,33.26,33.26,0,0,1,5.86.52,32.58,32.58,0,1,0-21,60.91A32.55,32.55,0,0,1,241.34,445.49Z"/><path class="cls-9" d="M281.52,404.73a41.87,41.87,0,0,1-42.89,71.7,41.87,41.87,0,1,0,42.89-71.7Z"/><path class="cls-7" d="M284.67,463.88c4.76-5.33,9.41-11.65,9.09-18.79,0-.78-.27-1.73-1-1.94s-1.5.6-1.91,1.32c-1.82,3.16-3,6.65-4.67,9.89a34.85,34.85,0,0,1-6,8.31c-1.73,1.76-4.53,3.43-5.12,6C273.36,475.92,283.12,465.61,284.67,463.88Z"/><path class="cls-7" d="M291.22,430.73a11.93,11.93,0,0,0-1.45,7.65,2.85,2.85,0,0,0,.82,1.84,2.17,2.17,0,0,0,2.74-.28,5.31,5.31,0,0,0,1.31-2.66,8.64,8.64,0,0,0,.19-4.1,4.11,4.11,0,0,0-2.6-3Z"/><path class="cls-4" d="M171.09,143.13l23.12,30.32s25.23-41,23.66-40.47-16.3,2.62-16.3,2.62l-9.51,14.72-4.68-13.66Z"/><polygon class="cls-4" points="234.69 132.97 257.04 167.66 284.09 132.97 271.5 132.97 259.39 144.75 252.03 129.3 234.69 132.97"/><polygon class="cls-4" points="298.17 132.97 313 173.45 341.03 143.13 326.66 139.13 317.73 148.48 315.61 134.55 298.17 132.97"/><polygon class="cls-4" points="215.24 178.18 232.09 212.86 245.2 173.45 232.31 173.45 230.22 184.67 223.65 173.45 215.24 178.18"/><path class="cls-4" d="M268.32,173.45c.53,3.15,11.46,39.41,11.46,39.41l18.39-34.16-10.4-5.25-3.68,11.22-4.31-12.8Z"/><path class="cls-1" d="M140.89,629.2c.52,3.16,11.46,39.42,11.46,39.42l18.38-34.16-10.4-5.26-3.68,11.22-4.3-12.79Z"/><path class="cls-1" d="M211.5,541.19C212,544.34,223,580.6,223,580.6l18.38-34.16-10.4-5.25-3.68,11.22-4.3-12.8Z"/><path class="cls-1" d="M300.69,618.88c.52,3.15,11.46,39.41,11.46,39.41l18.38-34.16-10.4-5.25-3.68,11.22-4.3-12.8Z"/><path class="cls-1" d="M376.92,539.83c.53,3.16,11.46,39.42,11.46,39.42l18.39-34.16-10.4-5.26-3.68,11.22-4.31-12.79Z"/><path class="cls-4" d="M247.82,217.59c.53,2.63,10.24,36.79,10.24,36.79l13.44-36.79-11.59-4.73-1.85,11.57-3.74-11.57Z"/><path class="cls-2" d="M446.8,547.93,431.94,708.77s-8.23,5.28-39.18,12.5c-27.93,6.52-47.93,2-47.93,2l-35.34-70.14Z"/><path class="cls-2" d="M45.43,523.28c-6.26,23.68-15.37,46.79-29,67.16-.78,1.17-1.84,2.46-3.24,2.36-1.72-.13-2.49-2.2-2.73-3.91a34.69,34.69,0,0,1,.07-10A63.16,63.16,0,0,0,6.85,594.3c-.47,4.14-.11,9.13,3.45,11.28,2.48,1.5,5.79,1,8.22-.59a18.78,18.78,0,0,0,5.57-6.57c5.1-8.85,7.57-18.92,10.85-28.6,22-65.17,24.63-109.6,23.27-118.56C54.26,475.41,51.71,499.53,45.43,523.28Z"/><path class="cls-2" d="M71.34,553.17C65.08,576.84,56,600,42.38,620.33c-.78,1.17-1.84,2.46-3.24,2.36-1.72-.13-2.49-2.2-2.73-3.91a34.76,34.76,0,0,1,.07-10,63.23,63.23,0,0,0-3.72,15.39c-.47,4.14-.11,9.12,3.45,11.28,2.48,1.5,5.79,1,8.22-.6A18.55,18.55,0,0,0,50,628.31c5.1-8.85,7.57-18.92,10.85-28.6,22-65.17,24.63-109.6,23.27-118.56C80.17,505.3,77.62,529.42,71.34,553.17Z"/><path class="cls-1" d="M388,649.7c.53,3.15,11.46,39.42,11.46,39.42L417.84,655l-10.39-5.26-3.68,11.22-4.31-12.8Z"/></g></g></svg>