<svg xmlns="http://www.w3.org/2000/svg" viewBox="0 0 662.62 820.33"><defs><style>.cls-1{fill:#302f3a;}.cls-2{fill:#5e4135;}.cls-3{fill:#875950;}.cls-4{fill:#aa7263;}.cls-5{fill:#eaa549;}.cls-6{fill:#efc71b;}.cls-7{fill:#fff;opacity:0.32;}.cls-8{fill:#4b495b;}</style></defs><g id="Layer_2" data-name="Layer 2"><g id="Layer_2-2" data-name="Layer 2"><path class="cls-1" d="M246.19,108.85c-.31-1.3-49.78-32.31-48.78-33.81S304.18,10.55,304.18,10.55l112.17,52L364,100Z"/><path class="cls-2" d="M479.18,791.25S458.43,773,424,775.39,363,798,363,798s26-4.08,25.21-3.16c-2.17,2.45-17.89,25.53-17.89,25.53s36-16.2,63.59-23C460.37,790.74,479.18,791.25,479.18,791.25Z"/><path class="cls-2" d="M444.47,686.3c.06,1.65-9.87,103.54-9.87,103.54l-13,.43L408.9,680.07Z"/><path class="cls-2" d="M376,784.59s-20.75-18.23-55.21-15.86-60.94,22.57-60.94,22.57,26-4.08,25.2-3.16c-2.16,2.45-17.89,25.53-17.89,25.53s36-16.2,63.6-23C357.2,784.08,376,784.59,376,784.59Z"/><path class="cls-2" d="M341.3,679.64c.05,1.65-9.87,103.54-9.87,103.54l-13,.43-12.68-110.2Z"/><path class="cls-3" d="M266.76,533.05c1.65,2.62,24.75,164.54,26.65,164.07s63.29-1.92,63.29-1.92l31.14-110.52Z"/><path class="cls-2" d="M114.36,296.32C84.9,281,60.42,257.93,35.11,236.46c-7.1-6-16.39-12.31-25-8.74C2.74,230.79-.15,239.89,0,247.89.49,272.56,20.34,292,38.75,308.38c-8.13-3.9-19.51-7.09-24.78.23-2.51,3.49-2.43,8.2-1.67,12.43,2.54,14,11.39,26.24,22.25,35.44s23.69,15.72,36.46,22c-6.8-.73-15-.89-19,4.67-4.64,6.46,0,15.43,5.27,21.38,20,22.5,49.13,34.55,78.08,42.78a426,426,0,0,0,75,14.21c42.86,4.2,87.45,1.58,126.68-16.18,18.3-8.28,36.37-21.39,41.69-40.77,5.81-21.19-5.51-43.66-20.82-59.42a100.53,100.53,0,0,0-29.77-21.57c-19.05-8.77-40.55-10.14-61.48-11.38-26.19-1.55-51.45-5.41-77.2-1.29C162,315.29,139.36,305.84,114.36,296.32Z"/><path class="cls-4" d="M319.14,107.62c57.66-.18,143,29.9,171.29,188.73s32.74,185.3,65,221.52,89.16,66.29,89.16,66.29l-9,22.48s-78.89-24-76.17-22.34,86.89,51.28,86.89,51.28L630,653.86l-107.24-22.2,65.74,28.9-34.58,28s-166.4-44.09-232-92.87C241.84,536.18,174.6,407.93,171.18,304.2,167.37,188.94,200.22,108,319.14,107.62Z"/><path class="cls-4" d="M472.26,228.1C471.2,225.93,455.77,79.15,447.64,75s-65.45,60.74-65.45,60.74Z"/><polygon class="cls-4" points="216.37 142.06 184.49 91.94 171.91 83.84 172.45 250.84 216.37 142.06"/><path class="cls-2" d="M453,94.87l37.6-61.38-14-4.89-8,14.12S472.9,13.61,472,13.64s-23.34-1.12-23.34-1.12l-4.35,30.37-10.2-22.65-9,3.76,3.86,63.16Z"/><path class="cls-2" d="M187.26,97.89c-.42-.7-.74-50.29-.74-50.29l-15.51-3-1.11,14.2-9.59-23.61-23.36,8,12.41,22.89-12-10.62L128,66.85l44,45.5Z"/><circle class="cls-5" cx="392.64" cy="210.03" r="49.95" transform="translate(135.23 573.37) rotate(-82.83)"/><path class="cls-6" d="M358.38,211.16a34.27,34.27,0,1,0,33.13-35.38A34.28,34.28,0,0,0,358.38,211.16Z"/><path class="cls-2" d="M392.62,247.4h0a37.35,37.35,0,1,1,1.25,0Zm0-68.55-1,0a31.09,31.09,0,1,0,1,0Z"/><path class="cls-2" d="M401.24,187a98.48,98.48,0,0,1-3,56.44,2,2,0,0,1-.61,1,2,2,0,0,1-.93.29l-5.87.75a1.86,1.86,0,0,1-1.28-.15,1.8,1.8,0,0,1-.6-1c-5.6-17.19-10.59-35.07-9.1-53.09a26.94,26.94,0,0,1,2.27-9.75,12,12,0,0,1,7.28-6.52C397,172.88,399.8,181.13,401.24,187Z"/><path class="cls-5" d="M190.19,216.67a50,50,0,1,0,48.28-51.57A50,50,0,0,0,190.19,216.67Z"/><path class="cls-6" d="M205.87,216.16A34.27,34.27,0,1,0,239,180.77,34.27,34.27,0,0,0,205.87,216.16Z"/><path class="cls-2" d="M240.1,252.39h0a37.37,37.37,0,1,1,1.25,0C240.93,252.39,240.52,252.39,240.1,252.39Zm0-68.54-1,0a31.09,31.09,0,1,0,1,0Z"/><path class="cls-2" d="M248.72,192a98.39,98.39,0,0,1-3,56.44,1.94,1.94,0,0,1-.6,1,2,2,0,0,1-.94.28l-5.86.75a1.84,1.84,0,0,1-1.29-.14,1.92,1.92,0,0,1-.6-1c-5.59-17.19-10.58-35.07-9.1-53.08a27.26,27.26,0,0,1,2.27-9.75,12,12,0,0,1,7.28-6.52C244.52,177.87,247.29,186.12,248.72,192Z"/><path class="cls-5" d="M450.23,178.41c0-.68-10.2-76.56-10.2-76.56L413.2,140.19Z"/><path class="cls-5" d="M211.4,149.33c-.34-.91-27.58-34.74-27.58-34.74L183,191.76Z"/><path class="cls-2" d="M304.3,224.44c3.08-3.5,12.22-6.58,12.56-6.5.38-.1,9.66,2.63,12.88,6,5.73,6,9.29,14.38,7.36,27.17-1.74,11.6-18.41,38.75-18.77,38.24-.36.53-18.1-26-20.31-37.47C295.59,239.17,298.81,230.65,304.3,224.44Z"/><path class="cls-7" d="M332.81,246.2c-.5,1.77-1.64,3.66-3.47,3.82-1.62.15-3-1.2-3.69-2.68a41.79,41.79,0,0,1-1.28-4.7,11.45,11.45,0,0,0-4.31-5.71c-1.51-1.16-3.3-1.81-3.76-3.88-.7-3.13,2.31-5.87,5.05-6.68C330.84,223.59,334.65,239.7,332.81,246.2Z"/><path class="cls-3" d="M370.09,121,352.6,145.05s-18.29-30.28-17.55-30.31,14.37,1,14.37,1L352.86,127l7.22-9.87Z"/><polygon class="cls-3" points="325.89 114.06 313.18 140.66 295.04 115.07 304.17 114.77 310.74 122.95 316.46 112.88 325.89 114.06"/><path class="cls-3" d="M281.5,116.51l-9.37,29.32-17.79-21.51s5.83-2.91,6.58-2.69,7.36,9.82,7.36,9.82l2.9-14.6Z"/><path class="cls-3" d="M344.76,146.79l-10.55,24.8-12.48-25.53,8.36-.27s5.2,10.28,4.63,9.77,1.33-10,1.33-10Z"/><path class="cls-3" d="M305,146.61s-8,27.2-8,26.21-18.82-24.09-18.82-24.09l9.75-1.55s3.09,9,3.92,8S294,147,294,147Z"/><polygon class="cls-3" points="322.68 174.94 315.85 196.65 303.7 175.56 309.84 174.37 313.44 182.92 316.75 174.14 322.68 174.94"/><polygon class="cls-4" points="476.16 632.03 461.11 697.52 396.1 699.66 381.49 596.77 476.16 632.03"/><polygon class="cls-3" points="314.69 386.44 308.94 437.08 277.33 390.44 290.19 389.06 300 399.56 303.63 387.62 314.69 386.44"/><polygon class="cls-3" points="391.24 323.83 385.49 374.48 353.88 327.83 366.75 326.45 376.55 336.95 380.19 325.01 391.24 323.83"/><polygon class="cls-3" points="394.17 468.36 404.11 518.35 359.81 483.55 371.64 478.32 384.17 485.33 384 472.85 394.17 468.36"/><polygon class="cls-3" points="229.16 348.39 223.41 399.04 191.81 352.4 204.67 351.02 214.47 361.51 218.11 349.58 229.16 348.39"/><polygon class="cls-3" points="293.07 461.81 287.32 512.46 255.72 465.82 268.58 464.44 278.38 474.94 282.02 463 293.07 461.81"/><polygon class="cls-3" points="507.7 519.37 516.94 569.5 473.13 534.08 485.03 529.01 497.46 536.2 497.47 523.72 507.7 519.37"/><polygon class="cls-3" points="436.45 423 445.69 473.13 401.88 437.71 413.78 432.65 426.21 439.84 426.22 427.36 436.45 423"/><polygon class="cls-3" points="396.28 555.26 406.49 605.2 362 570.64 373.8 565.34 386.37 572.29 386.13 559.81 396.28 555.26"/><path class="cls-2" d="M559.08,344.34C577.27,369,638,383.85,654.61,395.45c5.18,3.62,4.53,12.24,1.27,17.68-4.32,7.23-14.41,9.46-23.33,11,8.89,5,18,10.26,24.09,18s8.39,18.7,2.8,26.79c-5.1,7.4-15.31,10.57-24.89,11.26,4.92,2.54,10,5.18,13.45,9.22s5.07,9.88,2.34,14.4c-2.6,4.32-8.21,6.29-13.46,7.53-30.07,7.09-62,.95-91.06-8.64a368.74,368.74,0,0,1-99.62-50.46c-18.82-13.52-36.27-28.95-49-47.38S376.5,364.74,377.72,343c1.19-21.21,14.47-45.46,36.13-58C440.76,269.45,490.28,251,559.08,344.34Z"/><path class="cls-4" d="M645.91,450.19c.93,6.48-4.31,12.58-10.46,14.79s-13,1.43-19.41.39A265.5,265.5,0,0,1,515.72,427c33.66,12.73,68.8,25.66,104.61,22.19,6.75-.66,12.9-3.93,11.61-11.39C638,436.84,645.09,444.46,645.91,450.19Z"/><path class="cls-4" d="M632.32,490.73c.9,5.7-4.36,11.1-10.53,13.07s-12.95,1.31-19.4.41A285.34,285.34,0,0,1,502.24,470.8c33.6,11.08,68.68,22.34,104.5,19.13,6.75-.6,12.91-3.5,11.66-10.08C624.47,479,631.52,485.68,632.32,490.73Z"/><path class="cls-4" d="M644.2,403.28c.74,5.72-4.67,11-10.89,12.77s-13,.95-19.41-.13a285.57,285.57,0,0,1-99.18-36.21c33.28,12,68,24.25,103.93,22.06,6.77-.42,13-3.15,11.94-9.75C636.68,391.33,643.54,398.21,644.2,403.28Z"/><path class="cls-8" d="M237.2,82.33l10.15,42.41s25.36,8.69,65.84,6.43c44.48-2.49,59.84-10.74,59.84-10.74l4.26-43.14s-19.18-21.61-72.05-17.08C245.83,65.29,237.2,82.33,237.2,82.33Z"/><polygon class="cls-8" points="197.41 75.04 196.78 63.43 305.61 0 416.35 53.7 416.35 62.54 304.18 10.55 197.41 75.04"/><path class="cls-7" d="M250,94.27c1.49,5.24,1.38,10.78,1.58,16.23.11,2.82.34,5.76,1.84,8.15s4.67,3.95,7.21,2.75a6.21,6.21,0,0,0,3.13-4.93,25.27,25.27,0,0,0-.33-6.07c-.78-6.87.07-13.81.8-20.69.61-5.71-1.56-13.44-9-12.31C246.24,78.77,248.34,88.36,250,94.27Z"/></g></g></svg>