<svg xmlns="http://www.w3.org/2000/svg" viewBox="0 0 690.59 804.8"><defs><style>.cls-1{fill:#77756d;}.cls-2{fill:#5e4135;}.cls-3{fill:#a3a093;}.cls-4{fill:#9e9b90;}.cls-5{fill:#7c7a72;}.cls-6,.cls-9{fill:#fff;}.cls-7{fill:#efc71b;}.cls-8{fill:#324049;}.cls-9{opacity:0.32;}.cls-10{fill:#ccc8b6;}.cls-11,.cls-12{fill:#231f20;}.cls-11{opacity:0.4;}.cls-13{fill:#f2c7a0;}.cls-14{fill:#3b3b4f;}.cls-15{fill:#2a2938;}.cls-16{fill:#16161e;}</style></defs><g id="Layer_2" data-name="Layer 2"><g id="Layer_2-2" data-name="Layer 2"><path class="cls-1" d="M672.07,381.76a26.44,26.44,0,0,0-3.8-5,19.27,19.27,0,0,0-6-4.55c-6.42-2.88-14.4.34-18.59,6s-5.21,13.1-4.76,20.13c.35,5.41,1.75,11.23,6,14.65,5.07,4.13,12.89,3.34,18.28-.36C672.8,406.09,678.13,392.37,672.07,381.76Z"/><path class="cls-1" d="M41.32,399.5a21.47,21.47,0,0,1,6.79.34,18.2,18.2,0,0,1,10.46,7.36A26.87,26.87,0,0,1,63,419.36c1.12,8.83-1.16,17.87-5.37,25.71-3.87,7.21-9.75,13.79-17.53,16.29A35.64,35.64,0,0,1,29,462.74c-3.31,0-6.72-.24-9.72-1.65-4.1-1.92-7-5.87-8.46-10.15a39.75,39.75,0,0,1-1.68-13.4c.05-7.11,1.06-14.4,4.76-20.58a36.82,36.82,0,0,1,15.89-14.32A34,34,0,0,1,41.32,399.5Z"/><path class="cls-2" d="M184.65,779.32s20.14-18.91,54.66-17.67S301,782.2,301,782.2s-26.14-3.23-25.3-2.33c2.25,2.38,18.72,24.93,18.72,24.93s-36.5-15-64.32-20.94C203.44,778.19,184.65,779.32,184.65,779.32Z"/><path class="cls-2" d="M215.89,673.29c0,1.64,13.27,103.15,13.27,103.15h13l9-110.55Z"/><path class="cls-2" d="M380.73,765.14s20.14-18.91,54.66-17.67S497,768,497,768s-26.14-3.22-25.3-2.33c2.25,2.38,18.72,24.93,18.72,24.93s-36.5-15-64.32-20.94C399.52,764,380.73,765.14,380.73,765.14Z"/><path class="cls-2" d="M412,659.11c0,1.64,13.27,103.15,13.27,103.15h13l9-110.55Z"/><path class="cls-3" d="M388.45,514.26c-1.56,2.67-19.32,165.27-21.23,164.87s-63.32.15-63.32.15L269.14,569.85Z"/><path class="cls-4" d="M337.06,90.78c-57.64,1.73-141.93,34.6-165,194.27s-26.61,186.28-57.66,223.54.89,64.75-1.77,66.53,38.14,46.13,38.14,46.13L86,652.29s200.34-22.71,264.34-73.62c78.06-62.1,141-192.49,141-296.28C491.42,167.07,455.93,87.24,337.06,90.78Z"/><path class="cls-4" d="M188,216.25C189,214,199.57,66.83,207.55,62.4S275,120.94,275,120.94Z"/><polygon class="cls-4" points="440.91 121.82 471.12 70.68 483.43 62.17 488.39 229.1 440.91 121.82"/><path class="cls-5" d="M202.89,82.45l-39.6-60.11L177.14,17l8.5,13.85s-5.35-28.95-4.41-28.95S204.52,0,204.52,0l5.35,30.21,9.44-23,9.13,3.46L226.65,74Z"/><path class="cls-5" d="M468.55,76.72c.4-.71-.92-50.28-.92-50.28L483,23l1.57,14.17,8.82-23.92L517,20.46,505.38,43.74l11.65-11,9.76,11L484.28,90.67Z"/><circle class="cls-6" cx="266.98" cy="195.56" r="49.95" transform="translate(15.3 410.47) rotate(-76.72)"/><circle class="cls-7" cx="266.98" cy="195.56" r="34.27" transform="translate(52.98 448.01) rotate(-85.93)"/><path class="cls-8" d="M267,234.24a38.68,38.68,0,1,1,38.67-38.67A38.72,38.72,0,0,1,267,234.24Zm0-68.55a29.88,29.88,0,1,0,29.87,29.88A29.91,29.91,0,0,0,267,165.69Z"/><path class="cls-8" d="M257.62,172.83a98.31,98.31,0,0,0,4.88,56.3,2,2,0,0,0,.63,1,2,2,0,0,0,.95.25l5.89.56a1.84,1.84,0,0,0,1.27-.19,1.79,1.79,0,0,0,.57-1c5-17.36,9.43-35.4,7.35-53.36a27.32,27.32,0,0,0-2.59-9.67,12,12,0,0,0-7.5-6.27C261.36,158.57,258.86,166.91,257.62,172.83Z"/><circle class="cls-6" cx="419.57" cy="195.54" r="49.95"/><path class="cls-7" d="M453.85,195.54a34.28,34.28,0,1,1-34.28-34.28A34.28,34.28,0,0,1,453.85,195.54Z"/><path class="cls-8" d="M419.57,234.21a38.68,38.68,0,1,1,38.68-38.67A38.72,38.72,0,0,1,419.57,234.21Zm0-68.54a29.87,29.87,0,1,0,29.88,29.87A29.9,29.9,0,0,0,419.57,165.67Z"/><path class="cls-8" d="M410.22,172.8a98.35,98.35,0,0,0,4.88,56.31,1.91,1.91,0,0,0,.63,1,1.89,1.89,0,0,0,.94.25l5.89.56a1.86,1.86,0,0,0,1.28-.18,1.94,1.94,0,0,0,.57-1c5-17.36,9.42-35.4,7.34-53.35a26.91,26.91,0,0,0-2.59-9.68,12,12,0,0,0-7.49-6.27C414,158.54,411.46,166.88,410.22,172.8Z"/><path class="cls-6" d="M208.37,165.86c0-.69,7.68-76.86,7.68-76.86l28.07,37.44Z"/><path class="cls-6" d="M446.11,128.93c.31-.92,26.42-35.63,26.42-35.63l3.38,77.1Z"/><path class="cls-2" d="M355.74,207.05c-3.2-3.39-12.44-6.16-12.77-6.08-.38-.09-9.56,2.95-12.68,6.43-5.52,6.17-8.8,14.67-6.46,27.39,2.12,11.54,19.67,38.12,20,37.6.37.52,17.23-26.53,19.05-38.12C364.92,221.49,361.43,213.08,355.74,207.05Z"/><path class="cls-9" d="M328,229.75c.56,1.74,1.76,3.6,3.59,3.7,1.63.09,3-1.3,3.6-2.8a44.76,44.76,0,0,0,1.13-4.74,11.49,11.49,0,0,1,4.11-5.85c1.48-1.21,3.25-1.92,3.64-4,.6-3.15-2.51-5.78-5.27-6.5C329.19,207.08,325.91,223.31,328,229.75Z"/><path class="cls-6" d="M286.57,105.84l18.28,23.45s17.28-30.86,16.54-30.86-14.32,1.48-14.32,1.48L304,111.27l-7.54-9.63Z"/><polygon class="cls-6" points="330.52 97.44 344.11 123.62 361.39 97.44 352.25 97.44 345.96 105.84 339.91 95.96 330.52 97.44"/><path class="cls-6" d="M375,98.43l10.33,29,17.08-22.09s-5.93-2.71-6.67-2.47-7,10.06-7,10.06l-3.37-14.5Z"/><path class="cls-6" d="M312.75,130.78l11.36,24.44,11.63-25.93h-8.36s-4.86,10.46-4.32,9.92-1.65-9.92-1.65-9.92Z"/><path class="cls-6" d="M352.5,129.29s8.89,26.92,8.89,25.93,18-24.69,18-24.69l-9.8-1.24s-2.8,9.14-3.66,8.15-2.47-8.15-2.47-8.15Z"/><polygon class="cls-6" points="335.74 158.18 343.27 179.67 354.72 158.18 348.55 157.2 345.23 165.86 341.64 157.2 335.74 158.18"/><polygon class="cls-10" points="182.43 620.08 199.63 685.04 264.67 685.04 275.89 581.73 182.43 620.08"/><polygon class="cls-6" points="335.92 375.31 343.34 425.74 373.39 378.08 360.49 377.13 351.04 387.94 347.01 376.13 335.92 375.31"/><polygon class="cls-6" points="259.18 459.8 250.9 510.1 294.03 473.85 282.03 469.01 269.74 476.44 269.49 463.96 259.18 459.8"/><polygon class="cls-6" points="420.15 334.47 427.56 384.9 457.62 337.24 444.72 336.29 435.27 347.1 431.24 335.29 420.15 334.47"/><polygon class="cls-6" points="360.01 449.93 367.42 500.36 397.48 452.71 384.58 451.75 375.13 462.56 371.1 450.75 360.01 449.93"/><polygon class="cls-6" points="147.39 514.52 139.81 564.93 182.43 528.08 170.37 523.42 158.18 531.01 157.76 518.54 147.39 514.52"/><polygon class="cls-6" points="215.43 415.87 207.85 466.27 250.47 429.43 238.41 424.76 226.22 432.35 225.8 419.88 215.43 415.87"/><polygon class="cls-6" points="259.94 546.73 251.37 596.97 294.71 560.97 282.74 556.07 270.4 563.42 270.23 550.94 259.94 546.73"/><path class="cls-10" d="M645.08,422.75c-.17,3.95-3.35,7.36-7.05,9s-7.84,1.83-11.86,1.88c-41.82.56-82.43-11.09-122.3-22.62a227.67,227.67,0,0,0,117.87,33.7c7,0,14.29-.3,20.67-3.33s11.64-9.41,11.22-16.28c-.24-4-3.45-8.81-7.56-9.87C637.79,413.08,645.23,419,645.08,422.75Z"/><path class="cls-10" d="M577.67,462.2c-.73,3.32-4.12,5.9-7.7,6.93s-7.36.82-11,.49c-37.9-3.42-72.89-17-107.23-30.47,28.35,21.51,63.93,35.31,101.58,39.4,6.34.69,13,1.09,19.18-.88s11.92-6.85,12.56-12.69c.37-3.41-1.81-7.76-5.38-9C572.52,453.36,578.37,459.06,577.67,462.2Z"/><circle class="cls-11" cx="243.57" cy="191.65" r="66.99"/><path class="cls-12" d="M243.57,275.09A83.44,83.44,0,1,1,327,191.65,83.53,83.53,0,0,1,243.57,275.09Zm0-148.09a64.65,64.65,0,1,0,64.64,64.65A64.72,64.72,0,0,0,243.57,127Z"/><circle class="cls-11" cx="442.67" cy="191.65" r="66.99"/><path class="cls-12" d="M442.67,275.09a83.44,83.44,0,1,1,83.44-83.44A83.53,83.53,0,0,1,442.67,275.09Zm0-148.09a64.65,64.65,0,1,0,64.65,64.65A64.72,64.72,0,0,0,442.67,127Z"/><path class="cls-12" d="M365.68,214.14q-.06-9.31-.13-18.64a5.78,5.78,0,0,0-.58-3,5.46,5.46,0,0,0-2.21-1.78,48,48,0,0,0-36.24-3.58,15.12,15.12,0,0,0-5.35,2.59c-4,3.35-9.17,19.46-8.42,24.44.94,6.28,8.49-1.54,13.92-3.09a56,56,0,0,1,20-2.29C348.87,208.94,365.66,211.32,365.68,214.14Z"/><path class="cls-13" d="M62.42,306.26,84,262.92l185.1,36.69c37.13,11,114.5,34.86,114.5,34.86s57.82-35.86,120.23-56,156.88-33.35,156.88-33,11.8,25,11.8,25L525.79,441.07,302,459.14Z"/><path class="cls-14" d="M33.84,318,52.4,304.89l285.14,38.93s23.67,39.46,52,35.48c30.32-4.25,38.15-44.27,38.15-44.27L681.34,268.2l9.25,10.31L397.48,415.86Z"/><path class="cls-15" d="M33.84,318l290.38,39.75s29.8,37.32,64.23,37.32c42.7,0,46.82-48,46.82-48l255.32-68.59L578.76,645.36,411.64,685s-10.43,26.07-47.19,26.07c-31.4,0-48.89-18.35-48.89-18.35L45.33,665.89Z"/><path class="cls-14" d="M354.66,348.21c.73.76,16,26.75,31.78,23.27S411.23,342,411.23,342Z"/><polygon class="cls-16" points="411.64 685.04 434.67 395.07 423.15 679.28 411.64 685.04"/><polygon class="cls-16" points="315.56 692.76 328.31 479.12 300.96 691.31 315.56 692.76"/><path class="cls-16" d="M71.07,453.47c3.71-.15,241.34,21.68,241.34,21.68l-4.31,19.66-237-20.67Z"/><polygon class="cls-16" points="71.06 494.81 297.71 515.77 293.25 529.36 78.32 512.09 71.06 494.81"/><path class="cls-3" d="M36.72,437.37a114,114,0,0,0,48.37,33c5.79,2,12.59,4.38,14.48,10.23s-2.53,12.05-8.1,14.44S79.58,497,73.54,496.42c6.57,6.54,13.33,13.37,16.57,22.06s1.93,19.8-5.53,25.31c-6.09,4.5-14.39,4.18-21.9,3.22,4.6,4.83,8.74,10.3,10.71,16.67s1.46,13.76-2.55,19.08c-6.37,8.45-19.65,8.91-28.79,3.59S27.1,571.49,22.41,562A219.84,219.84,0,0,1,0,464.93c0-11.24.86-22.65,4.72-33.2,1.72-4.69,10.64-23.2,17.72-20.58,3.37,1.24,3.7,9.39,5.07,12.44A57.72,57.72,0,0,0,36.72,437.37Z"/><path class="cls-3" d="M597.62,422.72c-10.18,3.47-21.35,6.49-28.09,14.87-2.28,2.83-3.95,6.33-3.78,10,.27,5.87,5.41,10.62,11.07,12.22s11.68.7,17.43-.51a96.19,96.19,0,0,0-23.08,17.09c-3.21,3.22-6.33,7-6.77,11.53-.67,6.91,5.45,13,12.17,14.78s13.82.32,20.61-1.13A28,28,0,0,0,582,524.65c-.14,2.7.21,5.64,2.07,7.6,1.59,1.68,4,2.31,6.28,2.57,12.59,1.41,24.35-6.34,33.56-15,27.48-25.91,42.84-62.51,50-99.58,2-10.25,3.33-21.17,1-31.48-3.65-16.18-11-5.43-19.36,1.52A185.21,185.21,0,0,1,597.62,422.72Z"/><path class="cls-10" d="M56,553.57c2.42,2.8,4.95,5.62,6.34,9s1.45,7.67-.88,10.55A13,13,0,0,1,56,576.75a16.53,16.53,0,0,1-8.14,1.46c-2.77-.36-5.5-2.05-6.42-4.68,3.28,1.08,7.54,1.89,9.65-.84a7,7,0,0,0,.93-5.24c-.78-6-4.19-11.19-7.36-16.28C35.52,536.54,19,519.41,15.47,502.49c4.89,9.6,14,18.38,18.37,25.18C40.11,537.44,48.41,544.78,56,553.57Z"/><path class="cls-10" d="M67,508.32c2.94,2.25,6,4.5,8,7.57s3,7.21,1.29,10.51A13.05,13.05,0,0,1,71.66,531,16.46,16.46,0,0,1,64,534.1c-2.78.22-5.8-.88-7.24-3.27,3.43.39,7.76.32,9.27-2.79a7,7,0,0,0-.15-5.31c-2-5.67-6.39-10.1-10.54-14.44-11.91-12.46-31.56-25.86-38.49-41.7C23.6,475,34.31,481.73,40,487.49,48.1,495.78,57.73,501.26,67,508.32Z"/><path class="cls-10" d="M70,469.2c2.83,1.5,5.74,3,8,5.34s3.94,5.83,3.31,9a10.51,10.51,0,0,1-2.67,4.77,12,12,0,0,1-5.42,3.92,6.33,6.33,0,0,1-6.46-1.71c2.81-.2,6.23-.95,6.75-3.91A7,7,0,0,0,72.28,482c-2.8-4.64-7.27-7.81-11.51-10.94-12.17-9-30.69-17.58-39.64-30.32,7.19,6.26,17.16,10.45,22.92,14.59C52.31,461.24,61.15,464.5,70,469.2Z"/><path class="cls-10" d="M591.28,473.19a37,37,0,0,0-8.36,6.14c-2.38,2.53-4.07,5.9-3.85,9.36a6.53,6.53,0,0,0,1.68,4.19,7.45,7.45,0,0,0,2.42,1.52,16.68,16.68,0,0,0,18.62-4.26,12.88,12.88,0,0,1-5.64,1.07c-1.91-.23-3.84-1.61-4-3.53a5.5,5.5,0,0,1,.77-2.91,31.36,31.36,0,0,1,7.63-9c16.75-14.69,43.72-22.42,53.11-43.92C634.26,448,612.92,460.32,591.28,473.19Z"/><path class="cls-10" d="M587,433.84a30.69,30.69,0,0,0-7.89,2.85,9.47,9.47,0,0,0-4.84,6.16,4.73,4.73,0,0,0,.57,3.44,6.25,6.25,0,0,0,1.66,1.62,14.69,14.69,0,0,0,15.79.62,11.45,11.45,0,0,1-4.74-.35c-1.5-.56-2.8-2-2.57-3.43a3.9,3.9,0,0,1,1.16-2,24.69,24.69,0,0,1,7.82-5.13c16.23-7.48,39.4-7.73,51-21.76C626.3,423.91,606.82,428.7,587,433.84Z"/><path class="cls-10" d="M656.13,455.86q-7.67,8.38-15.32,16.78c-8.39,9.18-16.83,18.41-26.61,26.1-6.61,5.2-13.94,9.81-18.76,16.7-2.33,3.32-3.86,8.19-1.11,11.17s7.4,2,10.9.25a35.12,35.12,0,0,0,8.58-6,17.89,17.89,0,0,1-10.2,1.39c-1.27-4,1.86-8,4.76-11.1,4.09-4.36,8.26-8.8,13.27-12.13C623.72,497.69,649.57,467.4,656.13,455.86Z"/></g></g></svg>